<?xml version="1.0" encoding="UTF-8" standalone="no"?>
<!-- Created with Inkscape (http://www.inkscape.org/) -->

<svg
   width="1000"
   height="1000"
   viewBox="0 0 264.58333 264.58334"
   version="1.1"
   id="svg5"
   inkscape:version="1.1 (c68e22c387, 2021-05-23)"
   sodipodi:docname="logo.svg"
   xmlns:inkscape="http://www.inkscape.org/namespaces/inkscape"
   xmlns:sodipodi="http://sodipodi.sourceforge.net/DTD/sodipodi-0.dtd"
   xmlns="http://www.w3.org/2000/svg"
   xmlns:svg="http://www.w3.org/2000/svg">
  <sodipodi:namedview
     id="namedview7"
     pagecolor="#505050"
     bordercolor="#eeeeee"
     borderopacity="1"
     inkscape:pageshadow="0"
     inkscape:pageopacity="0"
     inkscape:pagecheckerboard="0"
     inkscape:document-units="mm"
     showgrid="false"
     units="px"
     inkscape:zoom="0.74118967"
     inkscape:cx="397.33419"
     inkscape:cy="453.99985"
     inkscape:window-width="1920"
     inkscape:window-height="1017"
     inkscape:window-x="1912"
     inkscape:window-y="-8"
     inkscape:window-maximized="1"
     inkscape:current-layer="layer1" />
  <defs
     id="defs2" />
  <g
     inkscape:label="Layer 1"
     inkscape:groupmode="layer"
     id="layer1">
    <g
       id="g1994"
       transform="matrix(0.97571472,0,0,0.97571472,59.637669,-115.76546)">
      <path
         id="path858"
         style="fill:#000000;fill-opacity:1;stroke:none;stroke-width:0.499999;stop-color:#000000"
         d="m -11.779942,121.93954 a 46.049279,46.406249 0 0 0 -46.049385,46.40647 46.049279,46.406249 0 0 0 46.049385,46.40595 46.049279,46.406249 0 0 0 23.51071,-6.84557 l 46.324819,46.32482 -46.125865,46.12535 a 46.049279,46.406249 0 0 0 -23.709664,-6.64611 46.049279,46.406249 0 0 0 -46.049385,46.40647 46.049279,46.406249 0 0 0 46.049385,46.40595 46.049279,46.406249 0 0 0 44.555936,-34.80459 h 83.372686 a 46.049279,46.406249 0 0 0 44.55594,34.80459 46.049279,46.406249 0 0 0 46.04938,-46.40595 46.049279,46.406249 0 0 0 -46.04938,-46.40647 46.049279,46.406249 0 0 0 -23.69778,6.65748 l -46.13775,-46.13672 46.32534,-46.32482 a 46.049279,46.406249 0 0 0 23.51019,6.84557 46.049279,46.406249 0 0 0 46.04938,-46.40595 46.049279,46.406249 0 0 0 -46.04938,-46.40647 46.049279,46.406249 0 0 0 -44.55594,34.8046 H 32.806484 a 46.049279,46.406249 0 0 0 -44.586426,-34.8046 z m 0,23.56032 a 22.670413,22.846152 0 0 1 22.670452,22.84615 22.670413,22.846152 0 0 1 -22.670452,22.84615 22.670413,22.846152 0 0 1 -22.670451,-22.84615 22.670413,22.846152 0 0 1 22.670451,-22.84615 z m 172.484562,0 a 22.670413,22.846152 0 0 1 22.67045,22.84615 22.670413,22.846152 0 0 1 -22.67045,22.84615 22.670413,22.846152 0 0 1 -22.67045,-22.84615 22.670413,22.846152 0 0 1 22.67045,-22.84615 z M 32.775994,179.94737 h 83.372686 a 46.049279,46.406249 0 0 0 4.80384,11.38587 l -46.490182,46.4907 -46.490186,-46.4907 a 46.049279,46.406249 0 0 0 4.803842,-11.38587 z m 41.686344,90.6911 46.400782,46.40079 a 46.049279,46.406249 0 0 0 -4.71444,11.47578 H 32.806484 A 46.049279,46.406249 0 0 0 28.08119,317.01962 Z m -86.24228,46.6323 a 22.670413,22.846152 0 0 1 22.670452,22.84615 22.670413,22.846152 0 0 1 -22.670452,22.84615 22.670413,22.846152 0 0 1 -22.670451,-22.84615 22.670413,22.846152 0 0 1 22.670451,-22.84615 z m 172.484562,0 a 22.670414,22.846153 0 0 1 22.67045,22.84615 22.670414,22.846153 0 0 1 -22.67045,22.84615 22.670414,22.846153 0 0 1 -22.67045,-22.84615 22.670414,22.846153 0 0 1 22.67045,-22.84615 z" />
    </g>
  </g>
</svg>
